<svg xmlns="http://www.w3.org/2000/svg" viewBox="0 0 180 200" fill="none">
  <defs>
    <radialGradient id="down" cx=".35" cy=".22" r=".9"><stop stop-color="#fff7aa"/><stop offset=".65" stop-color="#ffdc4e"/><stop offset="1" stop-color="#f4b92c"/></radialGradient>
    <linearGradient id="bill" x2="0" y2="1"><stop stop-color="#ffba51"/><stop offset="1" stop-color="#ff853c"/></linearGradient>
  </defs>
  <ellipse cx="90" cy="189" rx="46" ry="6" fill="#19254d" opacity=".12"/>
  <g stroke="#dc9826" stroke-width="2.5" stroke-linejoin="round">
    <path d="M67 173q-13 8-11 13 18 6 31-5l-1-9" fill="#ff963e"/>
    <path d="M99 173q-3 10 8 13 12 3 21-2-6-10-16-12" fill="#ff963e"/>
    <path d="M62 110c-14 17-17 47-4 60 15 19 51 17 64 1 10-13 11-37-6-58" fill="url(#down)"/>
    <path d="M65 131q-29-4-31 15 9 12 27 1" fill="#ffe16a"/>
    <path d="M117 130q26-7 33-27 8 18-3 31-9 11-24 15" fill="#ffe16a"/>
    <path d="M48 85c-3-30 16-48 42-47 30 0 48 18 46 45-1 26-20 43-45 42-25-1-42-16-43-40Z" fill="url(#down)"/>
  </g>
  <ellipse cx="65" cy="94" rx="10" ry="6" fill="#ff9981" opacity=".65"/>
  <ellipse cx="119" cy="94" rx="10" ry="6" fill="#ff9981" opacity=".65"/>
  <ellipse cx="73" cy="79" rx="7.5" ry="11" fill="#1b294d"/>
  <ellipse cx="109" cy="79" rx="7.5" ry="11" fill="#1b294d"/>
  <ellipse cx="75" cy="75" rx="2.7" ry="3.8" fill="white"/>
  <ellipse cx="111" cy="75" rx="2.7" ry="3.8" fill="white"/>
  <path d="M77 97q14-13 29 0-1 16-15 16-11 0-14-16Z" fill="url(#bill)" stroke="#e78728" stroke-width="2"/>
  <path d="M81 101q10 8 21-1" stroke="#ae5720" stroke-width="2" stroke-linecap="round"/>
  <path d="M47 58C43 29 69 12 92 17c24-1 42 14 43 37l-43-5-45 9Z" fill="#00a9b6" stroke="#16848f" stroke-width="2.5"/>
  <path d="M69 50c-2-16 2-27 13-32 26-3 43 13 46 31Z" fill="#fff9e8"/>
  <path d="M94 32c-9-11-16 4 2 12 19-12 6-20-2-12Z" fill="#ff6269"/>
  <path d="M42 55q39-18 85-1 17 7 7 12-33-9-66 0-22 4-26-11Z" fill="#20c4c9" stroke="#16848f" stroke-width="2.5"/>
  <path d="m84 122 9 9 10-10-5 17-10 0Z" fill="#ff6269"/>
</svg>
